<svg width="57" height="47" viewBox="0 0 57 47" fill="none" xmlns="http://www.w3.org/2000/svg">
<path d="M0 0H57V27C57 38.0457 48.0457 47 37 47H0V0Z" fill="#FF00FF"/>
<path d="M0 0H57V27C57 38.0457 48.0457 47 37 47H0V0Z" stroke="white"/>
<path d="M18 22.5C17.1716 22.5 16.5 23.1716 16.5 24C16.5 24.8284 17.1716 25.5 18 25.5L18 22.5ZM39.0607 25.0607C39.6464 24.4749 39.6464 23.5251 39.0607 22.9393L29.5147 13.3934C28.9289 12.8076 27.9792 12.8076 27.3934 13.3934C26.8076 13.9792 26.8076 14.9289 27.3934 15.5147L35.8787 24L27.3934 32.4853C26.8076 33.0711 26.8076 34.0208 27.3934 34.6066C27.9792 35.1924 28.9289 35.1924 29.5147 34.6066L39.0607 25.0607ZM18 25.5L38 25.5L38 22.5L18 22.5L18 25.5Z" fill="black"/>
</svg>
