<svg width="35" height="35" viewBox="0 0 35 35" fill="none" xmlns="http://www.w3.org/2000/svg">
<path d="M0 0L35 0V35H0L0 0Z" fill="white"/>
<path d="M14.818 18.825C14.8027 18.7483 14.795 18.6333 14.795 18.48C14.795 17.8667 14.956 17.284 15.278 16.732C15.6 16.1647 16.0217 15.6663 16.543 15.237C16.8957 14.9457 17.2253 14.639 17.532 14.317C17.8387 13.9797 17.992 13.6193 17.992 13.236C17.992 12.776 17.831 12.431 17.509 12.201C17.187 11.9557 16.7807 11.833 16.29 11.833C15.7993 11.833 15.324 11.9097 14.864 12.063C14.404 12.201 13.9057 12.4003 13.369 12.661L12.587 10.499C13.1237 10.1617 13.7523 9.901 14.473 9.717C15.1937 9.533 15.9067 9.441 16.612 9.441C17.486 9.441 18.2067 9.56367 18.774 9.809C19.3413 10.039 19.786 10.3303 20.108 10.683C20.43 11.0357 20.6523 11.4267 20.775 11.856C20.913 12.27 20.982 12.6687 20.982 13.052C20.982 13.4967 20.89 13.903 20.706 14.271C20.5373 14.639 20.315 14.984 20.039 15.306C19.7783 15.628 19.4947 15.9347 19.188 16.226C18.8813 16.502 18.59 16.778 18.314 17.054C18.0533 17.33 17.831 17.6137 17.647 17.905C17.4783 18.1963 17.394 18.503 17.394 18.825H14.818ZM18.199 22.367C18.199 22.965 17.9997 23.4327 17.601 23.77C17.2177 24.1073 16.7807 24.276 16.29 24.276C16.0447 24.276 15.807 24.23 15.577 24.138C15.347 24.0613 15.14 23.9387 14.956 23.77C14.772 23.6013 14.6263 23.402 14.519 23.172C14.4117 22.942 14.358 22.6737 14.358 22.367C14.358 22.0757 14.4117 21.815 14.519 21.585C14.6263 21.3397 14.772 21.1403 14.956 20.987C15.14 20.8183 15.347 20.6957 15.577 20.619C15.807 20.527 16.0447 20.481 16.29 20.481C16.5353 20.481 16.773 20.527 17.003 20.619C17.233 20.6957 17.4323 20.8183 17.601 20.987C17.785 21.1403 17.9307 21.3397 18.038 21.585C18.1453 21.815 18.199 22.0757 18.199 22.367Z" fill="#FF00FF"/>
</svg>
