<svg width="17" height="17" viewBox="0 0 17 17" fill="none" xmlns="http://www.w3.org/2000/svg">
<g clip-path="url(#clip0_72_18)">
<path d="M6.818 10.825C6.80267 10.7483 6.795 10.6333 6.795 10.48C6.795 9.86667 6.956 9.284 7.278 8.732C7.6 8.16467 8.02167 7.66633 8.543 7.237C8.89567 6.94567 9.22533 6.639 9.532 6.317C9.83867 5.97967 9.992 5.61933 9.992 5.236C9.992 4.776 9.831 4.431 9.509 4.201C9.187 3.95567 8.78067 3.833 8.29 3.833C7.79933 3.833 7.324 3.90967 6.864 4.063C6.404 4.201 5.90567 4.40033 5.369 4.661L4.587 2.499C5.12367 2.16167 5.75233 1.901 6.473 1.717C7.19367 1.533 7.90667 1.441 8.612 1.441C9.486 1.441 10.2067 1.56367 10.774 1.809C11.3413 2.039 11.786 2.33033 12.108 2.683C12.43 3.03567 12.6523 3.42667 12.775 3.856C12.913 4.27 12.982 4.66867 12.982 5.052C12.982 5.49667 12.89 5.903 12.706 6.271C12.5373 6.639 12.315 6.984 12.039 7.306C11.7783 7.628 11.4947 7.93467 11.188 8.226C10.8813 8.502 10.59 8.778 10.314 9.054C10.0533 9.33 9.831 9.61367 9.647 9.905C9.47833 10.1963 9.394 10.503 9.394 10.825H6.818ZM10.199 14.367C10.199 14.965 9.99967 15.4327 9.601 15.77C9.21767 16.1073 8.78067 16.276 8.29 16.276C8.04467 16.276 7.807 16.23 7.577 16.138C7.347 16.0613 7.14 15.9387 6.956 15.77C6.772 15.6013 6.62633 15.402 6.519 15.172C6.41167 14.942 6.358 14.6737 6.358 14.367C6.358 14.0757 6.41167 13.815 6.519 13.585C6.62633 13.3397 6.772 13.1403 6.956 12.987C7.14 12.8183 7.347 12.6957 7.577 12.619C7.807 12.527 8.04467 12.481 8.29 12.481C8.53533 12.481 8.773 12.527 9.003 12.619C9.233 12.6957 9.43233 12.8183 9.601 12.987C9.785 13.1403 9.93067 13.3397 10.038 13.585C10.1453 13.815 10.199 14.0757 10.199 14.367Z" fill="currentColor"/>
</g>
<defs>
<clipPath id="clip0_72_18">
<rect width="17" height="17" fill="white"/>
</clipPath>
</defs>
</svg>
